<mxfile host="app.diagrams.net" modified="2021-10-10T22:39:29.060Z" agent="5.0 (Macintosh)" etag="c7-3PFa09EBOdnldqFQI" version="15.5.0" type="github">
  <diagram name="Page-1" id="c4acf3e9-155e-7222-9cf6-157b1a14988f">
    <mxGraphModel dx="1090" dy="722" grid="1" gridSize="10" guides="1" tooltips="1" connect="1" arrows="1" fold="1" page="1" pageScale="1" pageWidth="1100" pageHeight="1700" background="none" math="0" shadow="0">
      <root>
        <mxCell id="0" />
        <mxCell id="1" parent="0" />
        <mxCell id="17acba5748e5396b-1" value="&lt;div&gt;Shape Builder&lt;/div&gt;" style="shape=umlFrame;whiteSpace=wrap;html=1;rounded=0;shadow=0;comic=0;labelBackgroundColor=none;strokeWidth=1;fontFamily=Verdana;fontSize=10;align=center;" parent="1" vertex="1">
          <mxGeometry x="20" y="15" width="1060" height="1660" as="geometry" />
        </mxCell>
        <mxCell id="4T9-q51zRNTRowOw_aDu-89" style="edgeStyle=orthogonalEdgeStyle;rounded=0;orthogonalLoop=1;jettySize=auto;html=1;endArrow=block;endFill=0;dashed=1;" parent="1" source="17acba5748e5396b-20" target="4T9-q51zRNTRowOw_aDu-2" edge="1">
          <mxGeometry relative="1" as="geometry" />
        </mxCell>
        <mxCell id="4T9-q51zRNTRowOw_aDu-244" style="edgeStyle=orthogonalEdgeStyle;rounded=0;jumpStyle=sharp;orthogonalLoop=1;jettySize=auto;html=1;exitX=0.25;exitY=1;exitDx=0;exitDy=0;entryX=0;entryY=0.25;entryDx=0;entryDy=0;dashed=1;startArrow=none;startFill=0;endArrow=open;endFill=0;strokeColor=#000000;" parent="1" source="17acba5748e5396b-20" target="4T9-q51zRNTRowOw_aDu-178" edge="1">
          <mxGeometry relative="1" as="geometry">
            <Array as="points">
              <mxPoint x="155" y="730" />
              <mxPoint x="710" y="730" />
              <mxPoint x="710" y="932" />
            </Array>
          </mxGeometry>
        </mxCell>
        <mxCell id="17acba5748e5396b-20" value="&lt;b&gt;&lt;i&gt;Shape&lt;/i&gt;&lt;/b&gt;" style="swimlane;html=1;fontStyle=0;childLayout=stackLayout;horizontal=1;startSize=26;fillColor=none;horizontalStack=0;resizeParent=1;resizeLast=0;collapsible=1;marginBottom=0;swimlaneFillColor=#ffffff;rounded=0;shadow=0;comic=0;labelBackgroundColor=none;strokeWidth=1;fontFamily=Verdana;fontSize=10;align=center;" parent="1" vertex="1">
          <mxGeometry x="110" y="130" width="180" height="512" as="geometry">
            <mxRectangle x="350" y="42" width="90" height="26" as="alternateBounds" />
          </mxGeometry>
        </mxCell>
        <mxCell id="17acba5748e5396b-21" value="- x: int" style="text;html=1;strokeColor=none;fillColor=none;align=left;verticalAlign=top;spacingLeft=4;spacingRight=4;whiteSpace=wrap;overflow=hidden;rotatable=0;points=[[0,0.5],[1,0.5]];portConstraint=eastwest;" parent="17acba5748e5396b-20" vertex="1">
          <mxGeometry y="26" width="180" height="26" as="geometry" />
        </mxCell>
        <mxCell id="17acba5748e5396b-24" value="- y: int" style="text;html=1;strokeColor=none;fillColor=none;align=left;verticalAlign=top;spacingLeft=4;spacingRight=4;whiteSpace=wrap;overflow=hidden;rotatable=0;points=[[0,0.5],[1,0.5]];portConstraint=eastwest;" parent="17acba5748e5396b-20" vertex="1">
          <mxGeometry y="52" width="180" height="26" as="geometry" />
        </mxCell>
        <mxCell id="17acba5748e5396b-26" value="- height: int" style="text;html=1;strokeColor=none;fillColor=none;align=left;verticalAlign=top;spacingLeft=4;spacingRight=4;whiteSpace=wrap;overflow=hidden;rotatable=0;points=[[0,0.5],[1,0.5]];portConstraint=eastwest;" parent="17acba5748e5396b-20" vertex="1">
          <mxGeometry y="78" width="180" height="26" as="geometry" />
        </mxCell>
        <mxCell id="4T9-q51zRNTRowOw_aDu-12" value="- width: int" style="text;html=1;strokeColor=none;fillColor=none;align=left;verticalAlign=top;spacingLeft=4;spacingRight=4;whiteSpace=wrap;overflow=hidden;rotatable=0;points=[[0,0.5],[1,0.5]];portConstraint=eastwest;" parent="17acba5748e5396b-20" vertex="1">
          <mxGeometry y="104" width="180" height="26" as="geometry" />
        </mxCell>
        <mxCell id="4T9-q51zRNTRowOw_aDu-13" value="- colour: Color" style="text;html=1;strokeColor=none;fillColor=none;align=left;verticalAlign=top;spacingLeft=4;spacingRight=4;whiteSpace=wrap;overflow=hidden;rotatable=0;points=[[0,0.5],[1,0.5]];portConstraint=eastwest;" parent="17acba5748e5396b-20" vertex="1">
          <mxGeometry y="130" width="180" height="26" as="geometry" />
        </mxCell>
        <mxCell id="4T9-q51zRNTRowOw_aDu-20" value="" style="line;strokeWidth=1;fillColor=none;align=left;verticalAlign=middle;spacingTop=-1;spacingLeft=3;spacingRight=3;rotatable=0;labelPosition=right;points=[];portConstraint=eastwest;rounded=0;shadow=0;glass=0;sketch=0;" parent="17acba5748e5396b-20" vertex="1">
          <mxGeometry y="156" width="180" height="8" as="geometry" />
        </mxCell>
        <mxCell id="4T9-q51zRNTRowOw_aDu-14" value="+ &lt;span&gt;getSurfaceArea()&lt;/span&gt;: double" style="text;html=1;strokeColor=none;fillColor=none;align=left;verticalAlign=top;spacingLeft=4;spacingRight=4;whiteSpace=wrap;overflow=hidden;rotatable=0;points=[[0,0.5],[1,0.5]];portConstraint=eastwest;fontStyle=2" parent="17acba5748e5396b-20" vertex="1">
          <mxGeometry y="164" width="180" height="26" as="geometry" />
        </mxCell>
        <mxCell id="4T9-q51zRNTRowOw_aDu-19" value="+ draw(g: Graphics): void" style="text;strokeColor=none;fillColor=none;align=left;verticalAlign=top;spacingLeft=4;spacingRight=4;overflow=hidden;rotatable=0;points=[[0,0.5],[1,0.5]];portConstraint=eastwest;rounded=0;shadow=0;glass=0;sketch=0;fontStyle=2" parent="17acba5748e5396b-20" vertex="1">
          <mxGeometry y="190" width="180" height="26" as="geometry" />
        </mxCell>
        <mxCell id="4T9-q51zRNTRowOw_aDu-21" value="+ getX(): int" style="text;strokeColor=none;fillColor=none;align=left;verticalAlign=top;spacingLeft=4;spacingRight=4;overflow=hidden;rotatable=0;points=[[0,0.5],[1,0.5]];portConstraint=eastwest;rounded=0;shadow=0;glass=0;sketch=0;" parent="17acba5748e5396b-20" vertex="1">
          <mxGeometry y="216" width="180" height="26" as="geometry" />
        </mxCell>
        <mxCell id="4T9-q51zRNTRowOw_aDu-22" value="+ setX(x: int): void" style="text;strokeColor=none;fillColor=none;align=left;verticalAlign=top;spacingLeft=4;spacingRight=4;overflow=hidden;rotatable=0;points=[[0,0.5],[1,0.5]];portConstraint=eastwest;rounded=0;shadow=0;glass=0;sketch=0;" parent="17acba5748e5396b-20" vertex="1">
          <mxGeometry y="242" width="180" height="26" as="geometry" />
        </mxCell>
        <mxCell id="4T9-q51zRNTRowOw_aDu-23" value="+ getY(): int" style="text;strokeColor=none;fillColor=none;align=left;verticalAlign=top;spacingLeft=4;spacingRight=4;overflow=hidden;rotatable=0;points=[[0,0.5],[1,0.5]];portConstraint=eastwest;rounded=0;shadow=0;glass=0;sketch=0;" parent="17acba5748e5396b-20" vertex="1">
          <mxGeometry y="268" width="180" height="26" as="geometry" />
        </mxCell>
        <mxCell id="4T9-q51zRNTRowOw_aDu-24" value="+ setY(y: int): void" style="text;strokeColor=none;fillColor=none;align=left;verticalAlign=top;spacingLeft=4;spacingRight=4;overflow=hidden;rotatable=0;points=[[0,0.5],[1,0.5]];portConstraint=eastwest;rounded=0;shadow=0;glass=0;sketch=0;" parent="17acba5748e5396b-20" vertex="1">
          <mxGeometry y="294" width="180" height="26" as="geometry" />
        </mxCell>
        <mxCell id="4T9-q51zRNTRowOw_aDu-25" value="+ getHeight(): int" style="text;strokeColor=none;fillColor=none;align=left;verticalAlign=top;spacingLeft=4;spacingRight=4;overflow=hidden;rotatable=0;points=[[0,0.5],[1,0.5]];portConstraint=eastwest;rounded=0;shadow=0;glass=0;sketch=0;" parent="17acba5748e5396b-20" vertex="1">
          <mxGeometry y="320" width="180" height="26" as="geometry" />
        </mxCell>
        <mxCell id="4T9-q51zRNTRowOw_aDu-26" value="+ setHeight(height: int): void" style="text;strokeColor=none;fillColor=none;align=left;verticalAlign=top;spacingLeft=4;spacingRight=4;overflow=hidden;rotatable=0;points=[[0,0.5],[1,0.5]];portConstraint=eastwest;rounded=0;shadow=0;glass=0;sketch=0;" parent="17acba5748e5396b-20" vertex="1">
          <mxGeometry y="346" width="180" height="26" as="geometry" />
        </mxCell>
        <mxCell id="4T9-q51zRNTRowOw_aDu-27" value="+ getWidth(): int" style="text;strokeColor=none;fillColor=none;align=left;verticalAlign=top;spacingLeft=4;spacingRight=4;overflow=hidden;rotatable=0;points=[[0,0.5],[1,0.5]];portConstraint=eastwest;rounded=0;shadow=0;glass=0;sketch=0;" parent="17acba5748e5396b-20" vertex="1">
          <mxGeometry y="372" width="180" height="26" as="geometry" />
        </mxCell>
        <mxCell id="4T9-q51zRNTRowOw_aDu-28" value="+ setWidth(width: int): void" style="text;strokeColor=none;fillColor=none;align=left;verticalAlign=top;spacingLeft=4;spacingRight=4;overflow=hidden;rotatable=0;points=[[0,0.5],[1,0.5]];portConstraint=eastwest;rounded=0;shadow=0;glass=0;sketch=0;" parent="17acba5748e5396b-20" vertex="1">
          <mxGeometry y="398" width="180" height="26" as="geometry" />
        </mxCell>
        <mxCell id="4T9-q51zRNTRowOw_aDu-29" value="+ getColour(): Color" style="text;strokeColor=none;fillColor=none;align=left;verticalAlign=top;spacingLeft=4;spacingRight=4;overflow=hidden;rotatable=0;points=[[0,0.5],[1,0.5]];portConstraint=eastwest;rounded=0;shadow=0;glass=0;sketch=0;" parent="17acba5748e5396b-20" vertex="1">
          <mxGeometry y="424" width="180" height="26" as="geometry" />
        </mxCell>
        <mxCell id="4T9-q51zRNTRowOw_aDu-30" value="+ setColour(colour: Color): void" style="text;strokeColor=none;fillColor=none;align=left;verticalAlign=top;spacingLeft=4;spacingRight=4;overflow=hidden;rotatable=0;points=[[0,0.5],[1,0.5]];portConstraint=eastwest;rounded=0;shadow=0;glass=0;sketch=0;" parent="17acba5748e5396b-20" vertex="1">
          <mxGeometry y="450" width="180" height="26" as="geometry" />
        </mxCell>
        <mxCell id="4T9-q51zRNTRowOw_aDu-33" value="+ compareTo(s: Shape): int" style="text;strokeColor=none;fillColor=none;align=left;verticalAlign=top;spacingLeft=4;spacingRight=4;overflow=hidden;rotatable=0;points=[[0,0.5],[1,0.5]];portConstraint=eastwest;rounded=0;shadow=0;glass=0;sketch=0;" parent="17acba5748e5396b-20" vertex="1">
          <mxGeometry y="476" width="180" height="26" as="geometry" />
        </mxCell>
        <mxCell id="4T9-q51zRNTRowOw_aDu-2" value="&lt;i&gt;«interface»&lt;/i&gt;&lt;br&gt;&lt;b&gt;java.lang.Comparable&lt;/b&gt;" style="html=1;rounded=0;shadow=0;comic=0;labelBackgroundColor=none;strokeWidth=1;fontFamily=Verdana;fontSize=10;align=center;" parent="1" vertex="1">
          <mxGeometry x="130" y="30" width="140" height="50" as="geometry" />
        </mxCell>
        <mxCell id="4T9-q51zRNTRowOw_aDu-87" style="edgeStyle=orthogonalEdgeStyle;rounded=0;orthogonalLoop=1;jettySize=auto;html=1;endArrow=block;endFill=0;" parent="1" source="4T9-q51zRNTRowOw_aDu-63" target="17acba5748e5396b-20" edge="1">
          <mxGeometry relative="1" as="geometry">
            <Array as="points">
              <mxPoint x="360" y="410" />
              <mxPoint x="360" y="410" />
            </Array>
          </mxGeometry>
        </mxCell>
        <mxCell id="4T9-q51zRNTRowOw_aDu-63" value="Rectangle" style="swimlane;fontStyle=1;align=center;verticalAlign=top;childLayout=stackLayout;horizontal=1;startSize=26;horizontalStack=0;resizeParent=1;resizeParentMax=0;resizeLast=0;collapsible=1;marginBottom=0;rounded=0;shadow=0;glass=0;sketch=0;" parent="1" vertex="1">
          <mxGeometry x="340" y="360" width="330" height="104" as="geometry" />
        </mxCell>
        <mxCell id="4T9-q51zRNTRowOw_aDu-66" value="+ Rectangle(x: int, y: int, width: int, height: int, colour: Color)" style="text;strokeColor=none;fillColor=none;align=left;verticalAlign=top;spacingLeft=4;spacingRight=4;overflow=hidden;rotatable=0;points=[[0,0.5],[1,0.5]];portConstraint=eastwest;rounded=0;shadow=0;glass=0;sketch=0;" parent="4T9-q51zRNTRowOw_aDu-63" vertex="1">
          <mxGeometry y="26" width="330" height="26" as="geometry" />
        </mxCell>
        <mxCell id="4T9-q51zRNTRowOw_aDu-71" value="+ &lt;span&gt;getSurfaceArea()&lt;/span&gt;: double" style="text;html=1;strokeColor=none;fillColor=none;align=left;verticalAlign=top;spacingLeft=4;spacingRight=4;whiteSpace=wrap;overflow=hidden;rotatable=0;points=[[0,0.5],[1,0.5]];portConstraint=eastwest;fontStyle=0" parent="4T9-q51zRNTRowOw_aDu-63" vertex="1">
          <mxGeometry y="52" width="330" height="26" as="geometry" />
        </mxCell>
        <mxCell id="4T9-q51zRNTRowOw_aDu-72" value="+ draw(g: Graphics): void" style="text;strokeColor=none;fillColor=none;align=left;verticalAlign=top;spacingLeft=4;spacingRight=4;overflow=hidden;rotatable=0;points=[[0,0.5],[1,0.5]];portConstraint=eastwest;rounded=0;shadow=0;glass=0;sketch=0;fontStyle=0" parent="4T9-q51zRNTRowOw_aDu-63" vertex="1">
          <mxGeometry y="78" width="330" height="26" as="geometry" />
        </mxCell>
        <mxCell id="4T9-q51zRNTRowOw_aDu-88" style="edgeStyle=orthogonalEdgeStyle;rounded=0;orthogonalLoop=1;jettySize=auto;html=1;endArrow=block;endFill=0;exitX=0;exitY=0.5;exitDx=0;exitDy=0;entryX=1;entryY=0.5;entryDx=0;entryDy=0;" parent="1" source="4T9-q51zRNTRowOw_aDu-77" target="17acba5748e5396b-24" edge="1">
          <mxGeometry relative="1" as="geometry">
            <Array as="points">
              <mxPoint x="310" y="195" />
              <mxPoint x="310" y="195" />
            </Array>
          </mxGeometry>
        </mxCell>
        <mxCell id="4T9-q51zRNTRowOw_aDu-73" value="Circle" style="swimlane;fontStyle=1;align=center;verticalAlign=top;childLayout=stackLayout;horizontal=1;startSize=26;horizontalStack=0;resizeParent=1;resizeParentMax=0;resizeLast=0;collapsible=1;marginBottom=0;rounded=0;shadow=0;glass=0;sketch=0;" parent="1" vertex="1">
          <mxGeometry x="340" y="130" width="250" height="156" as="geometry" />
        </mxCell>
        <mxCell id="4T9-q51zRNTRowOw_aDu-74" value="+ Circle(x: int, y: int, width: int, colour: Color)" style="text;strokeColor=none;fillColor=none;align=left;verticalAlign=top;spacingLeft=4;spacingRight=4;overflow=hidden;rotatable=0;points=[[0,0.5],[1,0.5]];portConstraint=eastwest;rounded=0;shadow=0;glass=0;sketch=0;" parent="4T9-q51zRNTRowOw_aDu-73" vertex="1">
          <mxGeometry y="26" width="250" height="26" as="geometry" />
        </mxCell>
        <mxCell id="4T9-q51zRNTRowOw_aDu-77" value="+ setHeight(height: int): void" style="text;strokeColor=none;fillColor=none;align=left;verticalAlign=top;spacingLeft=4;spacingRight=4;overflow=hidden;rotatable=0;points=[[0,0.5],[1,0.5]];portConstraint=eastwest;rounded=0;shadow=0;glass=0;sketch=0;" parent="4T9-q51zRNTRowOw_aDu-73" vertex="1">
          <mxGeometry y="52" width="250" height="26" as="geometry" />
        </mxCell>
        <mxCell id="4T9-q51zRNTRowOw_aDu-78" value="+ setWidth(width: int): void" style="text;strokeColor=none;fillColor=none;align=left;verticalAlign=top;spacingLeft=4;spacingRight=4;overflow=hidden;rotatable=0;points=[[0,0.5],[1,0.5]];portConstraint=eastwest;rounded=0;shadow=0;glass=0;sketch=0;" parent="4T9-q51zRNTRowOw_aDu-73" vertex="1">
          <mxGeometry y="78" width="250" height="26" as="geometry" />
        </mxCell>
        <mxCell id="4T9-q51zRNTRowOw_aDu-75" value="+ &lt;span&gt;getSurfaceArea()&lt;/span&gt;: double" style="text;html=1;strokeColor=none;fillColor=none;align=left;verticalAlign=top;spacingLeft=4;spacingRight=4;whiteSpace=wrap;overflow=hidden;rotatable=0;points=[[0,0.5],[1,0.5]];portConstraint=eastwest;fontStyle=0" parent="4T9-q51zRNTRowOw_aDu-73" vertex="1">
          <mxGeometry y="104" width="250" height="26" as="geometry" />
        </mxCell>
        <mxCell id="4T9-q51zRNTRowOw_aDu-76" value="+ draw(g: Graphics): void" style="text;strokeColor=none;fillColor=none;align=left;verticalAlign=top;spacingLeft=4;spacingRight=4;overflow=hidden;rotatable=0;points=[[0,0.5],[1,0.5]];portConstraint=eastwest;rounded=0;shadow=0;glass=0;sketch=0;fontStyle=0" parent="4T9-q51zRNTRowOw_aDu-73" vertex="1">
          <mxGeometry y="130" width="250" height="26" as="geometry" />
        </mxCell>
        <mxCell id="4T9-q51zRNTRowOw_aDu-85" style="edgeStyle=orthogonalEdgeStyle;rounded=0;orthogonalLoop=1;jettySize=auto;html=1;endArrow=block;endFill=0;" parent="1" source="4T9-q51zRNTRowOw_aDu-79" target="4T9-q51zRNTRowOw_aDu-63" edge="1">
          <mxGeometry relative="1" as="geometry" />
        </mxCell>
        <mxCell id="4T9-q51zRNTRowOw_aDu-227" style="edgeStyle=orthogonalEdgeStyle;rounded=0;orthogonalLoop=1;jettySize=auto;html=1;entryX=0.75;entryY=1;entryDx=0;entryDy=0;startArrow=none;startFill=0;endArrow=diamondThin;endFill=0;strokeColor=#000000;" parent="1" source="4T9-q51zRNTRowOw_aDu-79" target="4T9-q51zRNTRowOw_aDu-186" edge="1">
          <mxGeometry relative="1" as="geometry" />
        </mxCell>
        <mxCell id="4T9-q51zRNTRowOw_aDu-79" value="Square" style="swimlane;fontStyle=1;align=center;verticalAlign=top;childLayout=stackLayout;horizontal=1;startSize=26;horizontalStack=0;resizeParent=1;resizeParentMax=0;resizeLast=0;collapsible=1;marginBottom=0;rounded=0;shadow=0;glass=0;sketch=0;" parent="1" vertex="1">
          <mxGeometry x="376.5" y="496" width="255.5" height="104" as="geometry" />
        </mxCell>
        <mxCell id="4T9-q51zRNTRowOw_aDu-80" value="+ Square(x: int, y: int, width: int, colour: Color)" style="text;strokeColor=none;fillColor=none;align=left;verticalAlign=top;spacingLeft=4;spacingRight=4;overflow=hidden;rotatable=0;points=[[0,0.5],[1,0.5]];portConstraint=eastwest;rounded=0;shadow=0;glass=0;sketch=0;" parent="4T9-q51zRNTRowOw_aDu-79" vertex="1">
          <mxGeometry y="26" width="255.5" height="26" as="geometry" />
        </mxCell>
        <mxCell id="4T9-q51zRNTRowOw_aDu-81" value="+ setHeight(height: int): void" style="text;strokeColor=none;fillColor=none;align=left;verticalAlign=top;spacingLeft=4;spacingRight=4;overflow=hidden;rotatable=0;points=[[0,0.5],[1,0.5]];portConstraint=eastwest;rounded=0;shadow=0;glass=0;sketch=0;" parent="4T9-q51zRNTRowOw_aDu-79" vertex="1">
          <mxGeometry y="52" width="255.5" height="26" as="geometry" />
        </mxCell>
        <mxCell id="4T9-q51zRNTRowOw_aDu-82" value="+ setWidth(width: int): void" style="text;strokeColor=none;fillColor=none;align=left;verticalAlign=top;spacingLeft=4;spacingRight=4;overflow=hidden;rotatable=0;points=[[0,0.5],[1,0.5]];portConstraint=eastwest;rounded=0;shadow=0;glass=0;sketch=0;" parent="4T9-q51zRNTRowOw_aDu-79" vertex="1">
          <mxGeometry y="78" width="255.5" height="26" as="geometry" />
        </mxCell>
        <mxCell id="4T9-q51zRNTRowOw_aDu-211" style="edgeStyle=orthogonalEdgeStyle;rounded=0;orthogonalLoop=1;jettySize=auto;html=1;entryX=0.811;entryY=0.051;entryDx=0;entryDy=0;entryPerimeter=0;startArrow=open;startFill=0;endArrow=none;endFill=0;exitX=0.5;exitY=0;exitDx=0;exitDy=0;fillColor=#f8cecc;strokeColor=#33001A;dashed=1;" parent="1" source="4T9-q51zRNTRowOw_aDu-94" edge="1">
          <mxGeometry relative="1" as="geometry">
            <mxPoint x="909.6599999999999" y="99.65999999999985" as="targetPoint" />
            <Array as="points">
              <mxPoint x="910" y="130" />
              <mxPoint x="910" y="130" />
            </Array>
          </mxGeometry>
        </mxCell>
        <mxCell id="4T9-q51zRNTRowOw_aDu-94" value="&lt;p style=&quot;margin: 4px 0px 0px ; text-align: center ; line-height: 1.3&quot;&gt;&lt;i&gt;&amp;lt;&amp;lt;enumeration&amp;gt;&amp;gt;&lt;/i&gt;&lt;br&gt;&lt;b&gt;ShapeType&lt;/b&gt;&lt;/p&gt;&lt;hr size=&quot;1&quot;&gt;&lt;p style=&quot;margin: 0px ; margin-left: 4px&quot;&gt;CIRCLE&lt;/p&gt;&lt;p style=&quot;margin: 0px ; margin-left: 4px&quot;&gt;RECTANGLE&lt;/p&gt;&lt;p style=&quot;margin: 0px ; margin-left: 4px&quot;&gt;SQUARE&lt;br&gt;&lt;/p&gt;" style="verticalAlign=middle;align=left;overflow=fill;fontSize=12;fontFamily=Helvetica;html=1;rounded=0;shadow=0;glass=0;sketch=0;spacingBottom=1;" parent="1" vertex="1">
          <mxGeometry x="850" y="154.5" width="120" height="101" as="geometry" />
        </mxCell>
        <mxCell id="4T9-q51zRNTRowOw_aDu-95" value="&lt;i&gt;«interface»&lt;/i&gt;&lt;br&gt;&lt;b&gt;java.awt.event.ActionListener&lt;/b&gt;" style="html=1;rounded=0;shadow=0;comic=0;labelBackgroundColor=none;strokeWidth=1;fontFamily=Verdana;fontSize=10;align=center;" parent="1" vertex="1">
          <mxGeometry x="90" y="1380" width="190" height="50" as="geometry" />
        </mxCell>
        <mxCell id="4T9-q51zRNTRowOw_aDu-96" value="javax.swing.JPanel" style="html=1;rounded=0;shadow=0;glass=0;sketch=0;verticalAlign=middle;fontStyle=1" parent="1" vertex="1">
          <mxGeometry x="110" y="1160" width="130" height="50" as="geometry" />
        </mxCell>
        <mxCell id="4T9-q51zRNTRowOw_aDu-169" style="edgeStyle=orthogonalEdgeStyle;rounded=0;orthogonalLoop=1;jettySize=auto;html=1;entryX=1;entryY=0.5;entryDx=0;entryDy=0;dashed=1;endArrow=block;endFill=0;exitX=0;exitY=0.5;exitDx=0;exitDy=0;" parent="1" source="4T9-q51zRNTRowOw_aDu-129" target="4T9-q51zRNTRowOw_aDu-95" edge="1">
          <mxGeometry relative="1" as="geometry" />
        </mxCell>
        <mxCell id="4T9-q51zRNTRowOw_aDu-170" style="edgeStyle=orthogonalEdgeStyle;rounded=0;orthogonalLoop=1;jettySize=auto;html=1;entryX=0.75;entryY=0;entryDx=0;entryDy=0;endArrow=block;endFill=0;exitX=0.109;exitY=1.002;exitDx=0;exitDy=0;exitPerimeter=0;" parent="1" source="4T9-q51zRNTRowOw_aDu-149" target="4T9-q51zRNTRowOw_aDu-96" edge="1">
          <mxGeometry relative="1" as="geometry">
            <Array as="points">
              <mxPoint x="370" y="1080" />
              <mxPoint x="208" y="1080" />
            </Array>
          </mxGeometry>
        </mxCell>
        <mxCell id="4T9-q51zRNTRowOw_aDu-175" style="edgeStyle=orthogonalEdgeStyle;rounded=0;orthogonalLoop=1;jettySize=auto;html=1;entryX=1;entryY=0.5;entryDx=0;entryDy=0;endArrow=open;endFill=0;dashed=1;exitX=0;exitY=0.5;exitDx=0;exitDy=0;" parent="1" source="4T9-q51zRNTRowOw_aDu-130" target="4T9-q51zRNTRowOw_aDu-174" edge="1">
          <mxGeometry relative="1" as="geometry">
            <mxPoint x="340" y="865" as="sourcePoint" />
            <mxPoint x="294.9999999999999" y="840" as="targetPoint" />
            <Array as="points">
              <mxPoint x="340" y="1505" />
            </Array>
          </mxGeometry>
        </mxCell>
        <mxCell id="4T9-q51zRNTRowOw_aDu-181" style="edgeStyle=orthogonalEdgeStyle;rounded=0;orthogonalLoop=1;jettySize=auto;html=1;entryX=0.915;entryY=1.027;entryDx=0;entryDy=0;entryPerimeter=0;dashed=1;endArrow=open;endFill=0;exitX=0.917;exitY=-0.004;exitDx=0;exitDy=0;exitPerimeter=0;" parent="1" source="4T9-q51zRNTRowOw_aDu-103" target="4T9-q51zRNTRowOw_aDu-149" edge="1">
          <mxGeometry relative="1" as="geometry">
            <Array as="points">
              <mxPoint x="590" y="1290" />
              <mxPoint x="670" y="1290" />
              <mxPoint x="670" y="1080" />
              <mxPoint x="590" y="1080" />
            </Array>
          </mxGeometry>
        </mxCell>
        <mxCell id="4T9-q51zRNTRowOw_aDu-103" value="ButtonPanel" style="swimlane;fontStyle=1;align=center;verticalAlign=top;childLayout=stackLayout;horizontal=1;startSize=26;horizontalStack=0;resizeParent=1;resizeParentMax=0;resizeLast=0;collapsible=1;marginBottom=0;rounded=0;shadow=0;glass=0;sketch=0;" parent="1" vertex="1">
          <mxGeometry x="340" y="1330" width="273" height="320" as="geometry" />
        </mxCell>
        <mxCell id="4T9-q51zRNTRowOw_aDu-104" value="- serialVersionUID: long" style="text;strokeColor=none;fillColor=none;align=left;verticalAlign=top;spacingLeft=4;spacingRight=4;overflow=hidden;rotatable=0;points=[[0,0.5],[1,0.5]];portConstraint=eastwest;rounded=0;shadow=0;glass=0;sketch=0;fontStyle=4" parent="4T9-q51zRNTRowOw_aDu-103" vertex="1">
          <mxGeometry y="26" width="273" height="26" as="geometry" />
        </mxCell>
        <mxCell id="4T9-q51zRNTRowOw_aDu-127" value="- INSTANCE: ButtonPanel" style="text;strokeColor=none;fillColor=none;align=left;verticalAlign=top;spacingLeft=4;spacingRight=4;overflow=hidden;rotatable=0;points=[[0,0.5],[1,0.5]];portConstraint=eastwest;rounded=0;shadow=0;glass=0;sketch=0;fontStyle=4" parent="4T9-q51zRNTRowOw_aDu-103" vertex="1">
          <mxGeometry y="52" width="273" height="26" as="geometry" />
        </mxCell>
        <mxCell id="4T9-q51zRNTRowOw_aDu-128" value="- LOAD_SHAPES: String" style="text;strokeColor=none;fillColor=none;align=left;verticalAlign=top;spacingLeft=4;spacingRight=4;overflow=hidden;rotatable=0;points=[[0,0.5],[1,0.5]];portConstraint=eastwest;rounded=0;shadow=0;glass=0;sketch=0;fontStyle=4" parent="4T9-q51zRNTRowOw_aDu-103" vertex="1">
          <mxGeometry y="78" width="273" height="26" as="geometry" />
        </mxCell>
        <mxCell id="4T9-q51zRNTRowOw_aDu-129" value="- SORT_SHAPES: String" style="text;strokeColor=none;fillColor=none;align=left;verticalAlign=top;spacingLeft=4;spacingRight=4;overflow=hidden;rotatable=0;points=[[0,0.5],[1,0.5]];portConstraint=eastwest;rounded=0;shadow=0;glass=0;sketch=0;fontStyle=4" parent="4T9-q51zRNTRowOw_aDu-103" vertex="1">
          <mxGeometry y="104" width="273" height="26" as="geometry" />
        </mxCell>
        <mxCell id="4T9-q51zRNTRowOw_aDu-107" value="- NUMBER_OF_SHAPES: int" style="text;strokeColor=none;fillColor=none;align=left;verticalAlign=top;spacingLeft=4;spacingRight=4;overflow=hidden;rotatable=0;points=[[0,0.5],[1,0.5]];portConstraint=eastwest;rounded=0;shadow=0;glass=0;sketch=0;fontStyle=4" parent="4T9-q51zRNTRowOw_aDu-103" vertex="1">
          <mxGeometry y="130" width="273" height="26" as="geometry" />
        </mxCell>
        <mxCell id="4T9-q51zRNTRowOw_aDu-130" value="- loadButton: JButton" style="text;strokeColor=none;fillColor=none;align=left;verticalAlign=top;spacingLeft=4;spacingRight=4;overflow=hidden;rotatable=0;points=[[0,0.5],[1,0.5]];portConstraint=eastwest;rounded=0;shadow=0;glass=0;sketch=0;fontStyle=0" parent="4T9-q51zRNTRowOw_aDu-103" vertex="1">
          <mxGeometry y="156" width="273" height="26" as="geometry" />
        </mxCell>
        <mxCell id="4T9-q51zRNTRowOw_aDu-131" value="- sortButton: JButton" style="text;strokeColor=none;fillColor=none;align=left;verticalAlign=top;spacingLeft=4;spacingRight=4;overflow=hidden;rotatable=0;points=[[0,0.5],[1,0.5]];portConstraint=eastwest;rounded=0;shadow=0;glass=0;sketch=0;fontStyle=0" parent="4T9-q51zRNTRowOw_aDu-103" vertex="1">
          <mxGeometry y="182" width="273" height="26" as="geometry" />
        </mxCell>
        <mxCell id="4T9-q51zRNTRowOw_aDu-105" value="" style="line;strokeWidth=1;fillColor=none;align=left;verticalAlign=middle;spacingTop=-1;spacingLeft=3;spacingRight=3;rotatable=0;labelPosition=right;points=[];portConstraint=eastwest;rounded=0;shadow=0;glass=0;sketch=0;" parent="4T9-q51zRNTRowOw_aDu-103" vertex="1">
          <mxGeometry y="208" width="273" height="8" as="geometry" />
        </mxCell>
        <mxCell id="4T9-q51zRNTRowOw_aDu-106" value="- ButtonPanel() " style="text;strokeColor=none;fillColor=none;align=left;verticalAlign=top;spacingLeft=4;spacingRight=4;overflow=hidden;rotatable=0;points=[[0,0.5],[1,0.5]];portConstraint=eastwest;rounded=0;shadow=0;glass=0;sketch=0;" parent="4T9-q51zRNTRowOw_aDu-103" vertex="1">
          <mxGeometry y="216" width="273" height="26" as="geometry" />
        </mxCell>
        <mxCell id="4T9-q51zRNTRowOw_aDu-132" value="+ getInstance(): ButtonPanel" style="text;strokeColor=none;fillColor=none;align=left;verticalAlign=top;spacingLeft=4;spacingRight=4;overflow=hidden;rotatable=0;points=[[0,0.5],[1,0.5]];portConstraint=eastwest;rounded=0;shadow=0;glass=0;sketch=0;" parent="4T9-q51zRNTRowOw_aDu-103" vertex="1">
          <mxGeometry y="242" width="273" height="26" as="geometry" />
        </mxCell>
        <mxCell id="4T9-q51zRNTRowOw_aDu-133" value="+ actionPerformed(e: ActionEvent): ButtonPanel" style="text;strokeColor=none;fillColor=none;align=left;verticalAlign=top;spacingLeft=4;spacingRight=4;overflow=hidden;rotatable=0;points=[[0,0.5],[1,0.5]];portConstraint=eastwest;rounded=0;shadow=0;glass=0;sketch=0;" parent="4T9-q51zRNTRowOw_aDu-103" vertex="1">
          <mxGeometry y="268" width="273" height="26" as="geometry" />
        </mxCell>
        <mxCell id="4T9-q51zRNTRowOw_aDu-134" value="- generateShapes(): void" style="text;strokeColor=none;fillColor=none;align=left;verticalAlign=top;spacingLeft=4;spacingRight=4;overflow=hidden;rotatable=0;points=[[0,0.5],[1,0.5]];portConstraint=eastwest;rounded=0;shadow=0;glass=0;sketch=0;" parent="4T9-q51zRNTRowOw_aDu-103" vertex="1">
          <mxGeometry y="294" width="273" height="26" as="geometry" />
        </mxCell>
        <mxCell id="4T9-q51zRNTRowOw_aDu-179" style="edgeStyle=orthogonalEdgeStyle;rounded=0;orthogonalLoop=1;jettySize=auto;html=1;entryX=0;entryY=0.75;entryDx=0;entryDy=0;dashed=1;endArrow=open;endFill=0;jumpStyle=arc;exitX=1;exitY=0.5;exitDx=0;exitDy=0;" parent="1" source="4T9-q51zRNTRowOw_aDu-145" target="4T9-q51zRNTRowOw_aDu-178" edge="1">
          <mxGeometry relative="1" as="geometry">
            <Array as="points">
              <mxPoint x="613" y="958" />
              <mxPoint x="680" y="958" />
            </Array>
          </mxGeometry>
        </mxCell>
        <mxCell id="4T9-q51zRNTRowOw_aDu-185" style="edgeStyle=orthogonalEdgeStyle;rounded=0;orthogonalLoop=1;jettySize=auto;html=1;exitX=0;exitY=0.5;exitDx=0;exitDy=0;entryX=0.113;entryY=0.378;entryDx=0;entryDy=0;endArrow=diamondThin;endFill=0;entryPerimeter=0;" parent="1" source="4T9-q51zRNTRowOw_aDu-144" target="17acba5748e5396b-1" edge="1">
          <mxGeometry relative="1" as="geometry">
            <Array as="points">
              <mxPoint x="140" y="917" />
            </Array>
          </mxGeometry>
        </mxCell>
        <mxCell id="4T9-q51zRNTRowOw_aDu-201" style="edgeStyle=orthogonalEdgeStyle;rounded=0;orthogonalLoop=1;jettySize=auto;html=1;entryX=0.5;entryY=0;entryDx=0;entryDy=0;startArrow=open;startFill=0;endArrow=none;endFill=0;fillColor=#f8cecc;strokeColor=#000000;dashed=1;" parent="1" source="4T9-q51zRNTRowOw_aDu-135" target="4T9-q51zRNTRowOw_aDu-163" edge="1">
          <mxGeometry relative="1" as="geometry" />
        </mxCell>
        <mxCell id="4T9-q51zRNTRowOw_aDu-231" style="edgeStyle=orthogonalEdgeStyle;rounded=0;jumpStyle=line;orthogonalLoop=1;jettySize=auto;html=1;entryX=0.5;entryY=1;entryDx=0;entryDy=0;startArrow=none;startFill=0;endArrow=open;endFill=0;strokeColor=#000000;dashed=1;" parent="1" source="4T9-q51zRNTRowOw_aDu-135" target="4T9-q51zRNTRowOw_aDu-230" edge="1">
          <mxGeometry relative="1" as="geometry" />
        </mxCell>
        <mxCell id="4T9-q51zRNTRowOw_aDu-135" value="ShapePanel" style="swimlane;fontStyle=1;align=center;verticalAlign=top;childLayout=stackLayout;horizontal=1;startSize=26;horizontalStack=0;resizeParent=1;resizeParentMax=0;resizeLast=0;collapsible=1;marginBottom=0;rounded=0;shadow=0;glass=0;sketch=0;" parent="1" vertex="1">
          <mxGeometry x="340" y="740" width="273" height="320" as="geometry" />
        </mxCell>
        <mxCell id="4T9-q51zRNTRowOw_aDu-136" value="- serialVersionUID: long" style="text;strokeColor=none;fillColor=none;align=left;verticalAlign=top;spacingLeft=4;spacingRight=4;overflow=hidden;rotatable=0;points=[[0,0.5],[1,0.5]];portConstraint=eastwest;rounded=0;shadow=0;glass=0;sketch=0;fontStyle=4" parent="4T9-q51zRNTRowOw_aDu-135" vertex="1">
          <mxGeometry y="26" width="273" height="26" as="geometry" />
        </mxCell>
        <mxCell id="4T9-q51zRNTRowOw_aDu-137" value="- INSTANCE: ShapePanel" style="text;strokeColor=none;fillColor=none;align=left;verticalAlign=top;spacingLeft=4;spacingRight=4;overflow=hidden;rotatable=0;points=[[0,0.5],[1,0.5]];portConstraint=eastwest;rounded=0;shadow=0;glass=0;sketch=0;fontStyle=4" parent="4T9-q51zRNTRowOw_aDu-135" vertex="1">
          <mxGeometry y="52" width="273" height="26" as="geometry" />
        </mxCell>
        <mxCell id="4T9-q51zRNTRowOw_aDu-138" value="- SPACING: int" style="text;strokeColor=none;fillColor=none;align=left;verticalAlign=top;spacingLeft=4;spacingRight=4;overflow=hidden;rotatable=0;points=[[0,0.5],[1,0.5]];portConstraint=eastwest;rounded=0;shadow=0;glass=0;sketch=0;fontStyle=4" parent="4T9-q51zRNTRowOw_aDu-135" vertex="1">
          <mxGeometry y="78" width="273" height="26" as="geometry" />
        </mxCell>
        <mxCell id="4T9-q51zRNTRowOw_aDu-139" value="- MIN_SHAPE_SIZE: int" style="text;strokeColor=none;fillColor=none;align=left;verticalAlign=top;spacingLeft=4;spacingRight=4;overflow=hidden;rotatable=0;points=[[0,0.5],[1,0.5]];portConstraint=eastwest;rounded=0;shadow=0;glass=0;sketch=0;fontStyle=4" parent="4T9-q51zRNTRowOw_aDu-135" vertex="1">
          <mxGeometry y="104" width="273" height="26" as="geometry" />
        </mxCell>
        <mxCell id="4T9-q51zRNTRowOw_aDu-141" value="- shapes: Shape[]" style="text;strokeColor=none;fillColor=none;align=left;verticalAlign=top;spacingLeft=4;spacingRight=4;overflow=hidden;rotatable=0;points=[[0,0.5],[1,0.5]];portConstraint=eastwest;rounded=0;shadow=0;glass=0;sketch=0;fontStyle=0" parent="4T9-q51zRNTRowOw_aDu-135" vertex="1">
          <mxGeometry y="130" width="273" height="26" as="geometry" />
        </mxCell>
        <mxCell id="4T9-q51zRNTRowOw_aDu-143" value="" style="line;strokeWidth=1;fillColor=none;align=left;verticalAlign=middle;spacingTop=-1;spacingLeft=3;spacingRight=3;rotatable=0;labelPosition=right;points=[];portConstraint=eastwest;rounded=0;shadow=0;glass=0;sketch=0;" parent="4T9-q51zRNTRowOw_aDu-135" vertex="1">
          <mxGeometry y="156" width="273" height="8" as="geometry" />
        </mxCell>
        <mxCell id="4T9-q51zRNTRowOw_aDu-144" value="- ShapePanel() " style="text;strokeColor=none;fillColor=none;align=left;verticalAlign=top;spacingLeft=4;spacingRight=4;overflow=hidden;rotatable=0;points=[[0,0.5],[1,0.5]];portConstraint=eastwest;rounded=0;shadow=0;glass=0;sketch=0;" parent="4T9-q51zRNTRowOw_aDu-135" vertex="1">
          <mxGeometry y="164" width="273" height="26" as="geometry" />
        </mxCell>
        <mxCell id="4T9-q51zRNTRowOw_aDu-145" value="+ getInstance(): ShapePanel" style="text;strokeColor=none;fillColor=none;align=left;verticalAlign=top;spacingLeft=4;spacingRight=4;overflow=hidden;rotatable=0;points=[[0,0.5],[1,0.5]];portConstraint=eastwest;rounded=0;shadow=0;glass=0;sketch=0;" parent="4T9-q51zRNTRowOw_aDu-135" vertex="1">
          <mxGeometry y="190" width="273" height="26" as="geometry" />
        </mxCell>
        <mxCell id="4T9-q51zRNTRowOw_aDu-146" value="+ getMaxShapeWidth(numberOfShapes: int): int" style="text;strokeColor=none;fillColor=none;align=left;verticalAlign=top;spacingLeft=4;spacingRight=4;overflow=hidden;rotatable=0;points=[[0,0.5],[1,0.5]];portConstraint=eastwest;rounded=0;shadow=0;glass=0;sketch=0;" parent="4T9-q51zRNTRowOw_aDu-135" vertex="1">
          <mxGeometry y="216" width="273" height="26" as="geometry" />
        </mxCell>
        <mxCell id="4T9-q51zRNTRowOw_aDu-148" value="+ getMaxShapeHeight(numberOfShapes: int): int" style="text;strokeColor=none;fillColor=none;align=left;verticalAlign=top;spacingLeft=4;spacingRight=4;overflow=hidden;rotatable=0;points=[[0,0.5],[1,0.5]];portConstraint=eastwest;rounded=0;shadow=0;glass=0;sketch=0;" parent="4T9-q51zRNTRowOw_aDu-135" vertex="1">
          <mxGeometry y="242" width="273" height="26" as="geometry" />
        </mxCell>
        <mxCell id="4T9-q51zRNTRowOw_aDu-147" value="+ getShapes(): Shape[]" style="text;strokeColor=none;fillColor=none;align=left;verticalAlign=top;spacingLeft=4;spacingRight=4;overflow=hidden;rotatable=0;points=[[0,0.5],[1,0.5]];portConstraint=eastwest;rounded=0;shadow=0;glass=0;sketch=0;" parent="4T9-q51zRNTRowOw_aDu-135" vertex="1">
          <mxGeometry y="268" width="273" height="26" as="geometry" />
        </mxCell>
        <mxCell id="4T9-q51zRNTRowOw_aDu-149" value="+ paintComponent(g: Graphics): void" style="text;strokeColor=none;fillColor=none;align=left;verticalAlign=top;spacingLeft=4;spacingRight=4;overflow=hidden;rotatable=0;points=[[0,0.5],[1,0.5]];portConstraint=eastwest;rounded=0;shadow=0;glass=0;sketch=0;" parent="4T9-q51zRNTRowOw_aDu-135" vertex="1">
          <mxGeometry y="294" width="273" height="26" as="geometry" />
        </mxCell>
        <mxCell id="4T9-q51zRNTRowOw_aDu-189" style="edgeStyle=orthogonalEdgeStyle;rounded=0;orthogonalLoop=1;jettySize=auto;html=1;entryX=0.25;entryY=0;entryDx=0;entryDy=0;endArrow=open;endFill=0;fillColor=#f8cecc;strokeColor=#000000;dashed=1;" parent="1" source="4T9-q51zRNTRowOw_aDu-150" target="4T9-q51zRNTRowOw_aDu-186" edge="1">
          <mxGeometry relative="1" as="geometry">
            <Array as="points">
              <mxPoint x="713" y="150" />
              <mxPoint x="713" y="150" />
            </Array>
          </mxGeometry>
        </mxCell>
        <mxCell id="4T9-q51zRNTRowOw_aDu-192" style="edgeStyle=orthogonalEdgeStyle;rounded=0;orthogonalLoop=1;jettySize=auto;html=1;entryX=0.909;entryY=-0.001;entryDx=0;entryDy=0;endArrow=open;endFill=0;exitX=0;exitY=0.5;exitDx=0;exitDy=0;entryPerimeter=0;fillColor=#f8cecc;strokeColor=#000000;dashed=1;" parent="1" source="4T9-q51zRNTRowOw_aDu-151" target="17acba5748e5396b-20" edge="1">
          <mxGeometry relative="1" as="geometry">
            <Array as="points">
              <mxPoint x="460" y="79" />
              <mxPoint x="440" y="79" />
              <mxPoint x="440" y="110" />
              <mxPoint x="274" y="110" />
              <mxPoint x="274" y="130" />
            </Array>
          </mxGeometry>
        </mxCell>
        <mxCell id="4T9-q51zRNTRowOw_aDu-150" value="ShapeFactory" style="swimlane;fontStyle=1;childLayout=stackLayout;horizontal=1;startSize=26;horizontalStack=0;resizeParent=1;resizeParentMax=0;resizeLast=0;collapsible=1;marginBottom=0;rounded=0;shadow=0;glass=0;sketch=0;verticalAlign=middle;" parent="1" vertex="1">
          <mxGeometry x="460" y="47" width="510" height="52" as="geometry" />
        </mxCell>
        <mxCell id="4T9-q51zRNTRowOw_aDu-151" value="+ generateShape(shapeType: ShapeType, x: int, y: int, maxWidth: int, maxHeight: int): Shape" style="text;strokeColor=none;fillColor=none;align=left;verticalAlign=top;spacingLeft=4;spacingRight=4;overflow=hidden;rotatable=0;points=[[0,0.5],[1,0.5]];portConstraint=eastwest;rounded=0;shadow=0;glass=0;sketch=0;" parent="4T9-q51zRNTRowOw_aDu-150" vertex="1">
          <mxGeometry y="26" width="510" height="26" as="geometry" />
        </mxCell>
        <mxCell id="4T9-q51zRNTRowOw_aDu-214" style="edgeStyle=orthogonalEdgeStyle;rounded=0;orthogonalLoop=1;jettySize=auto;html=1;entryX=0.401;entryY=-0.001;entryDx=0;entryDy=0;entryPerimeter=0;startArrow=none;startFill=0;endArrow=open;endFill=0;strokeColor=#000000;fillColor=#f8cecc;dashed=1;" parent="1" source="4T9-q51zRNTRowOw_aDu-163" target="4T9-q51zRNTRowOw_aDu-103" edge="1">
          <mxGeometry relative="1" as="geometry" />
        </mxCell>
        <mxCell id="4T9-q51zRNTRowOw_aDu-163" value="Starter" style="swimlane;fontStyle=1;align=center;verticalAlign=top;childLayout=stackLayout;horizontal=1;startSize=26;horizontalStack=0;resizeParent=1;resizeParentMax=0;resizeLast=0;collapsible=1;marginBottom=0;rounded=0;shadow=0;glass=0;sketch=0;" parent="1" vertex="1">
          <mxGeometry x="260" y="1126" width="160" height="138" as="geometry" />
        </mxCell>
        <mxCell id="4T9-q51zRNTRowOw_aDu-164" value="- INSTNACE: Starter" style="text;strokeColor=none;fillColor=none;align=left;verticalAlign=top;spacingLeft=4;spacingRight=4;overflow=hidden;rotatable=0;points=[[0,0.5],[1,0.5]];portConstraint=eastwest;rounded=0;shadow=0;glass=0;sketch=0;fontStyle=4" parent="4T9-q51zRNTRowOw_aDu-163" vertex="1">
          <mxGeometry y="26" width="160" height="26" as="geometry" />
        </mxCell>
        <mxCell id="4T9-q51zRNTRowOw_aDu-165" value="" style="line;strokeWidth=1;fillColor=none;align=left;verticalAlign=middle;spacingTop=-1;spacingLeft=3;spacingRight=3;rotatable=0;labelPosition=right;points=[];portConstraint=eastwest;rounded=0;shadow=0;glass=0;sketch=0;" parent="4T9-q51zRNTRowOw_aDu-163" vertex="1">
          <mxGeometry y="52" width="160" height="8" as="geometry" />
        </mxCell>
        <mxCell id="4T9-q51zRNTRowOw_aDu-166" value="- Starter()" style="text;strokeColor=none;fillColor=none;align=left;verticalAlign=top;spacingLeft=4;spacingRight=4;overflow=hidden;rotatable=0;points=[[0,0.5],[1,0.5]];portConstraint=eastwest;rounded=0;shadow=0;glass=0;sketch=0;" parent="4T9-q51zRNTRowOw_aDu-163" vertex="1">
          <mxGeometry y="60" width="160" height="26" as="geometry" />
        </mxCell>
        <mxCell id="4T9-q51zRNTRowOw_aDu-167" value="+ getInstance(): Starter" style="text;strokeColor=none;fillColor=none;align=left;verticalAlign=top;spacingLeft=4;spacingRight=4;overflow=hidden;rotatable=0;points=[[0,0.5],[1,0.5]];portConstraint=eastwest;rounded=0;shadow=0;glass=0;sketch=0;fontStyle=4" parent="4T9-q51zRNTRowOw_aDu-163" vertex="1">
          <mxGeometry y="86" width="160" height="26" as="geometry" />
        </mxCell>
        <mxCell id="4T9-q51zRNTRowOw_aDu-168" value="+ main(args: String[]): void" style="text;strokeColor=none;fillColor=none;align=left;verticalAlign=top;spacingLeft=4;spacingRight=4;overflow=hidden;rotatable=0;points=[[0,0.5],[1,0.5]];portConstraint=eastwest;rounded=0;shadow=0;glass=0;sketch=0;fontStyle=4" parent="4T9-q51zRNTRowOw_aDu-163" vertex="1">
          <mxGeometry y="112" width="160" height="26" as="geometry" />
        </mxCell>
        <mxCell id="4T9-q51zRNTRowOw_aDu-171" style="edgeStyle=orthogonalEdgeStyle;rounded=0;orthogonalLoop=1;jettySize=auto;html=1;entryX=0.75;entryY=1;entryDx=0;entryDy=0;endArrow=block;endFill=0;exitX=0.109;exitY=0;exitDx=0;exitDy=0;exitPerimeter=0;" parent="1" source="4T9-q51zRNTRowOw_aDu-103" target="4T9-q51zRNTRowOw_aDu-96" edge="1">
          <mxGeometry relative="1" as="geometry">
            <Array as="points">
              <mxPoint x="370" y="1310" />
              <mxPoint x="208" y="1310" />
              <mxPoint x="208" y="1210" />
            </Array>
          </mxGeometry>
        </mxCell>
        <mxCell id="4T9-q51zRNTRowOw_aDu-172" value="&lt;b&gt;javax.swing.JButton&lt;/b&gt;" style="html=1;rounded=0;shadow=0;comic=0;labelBackgroundColor=none;strokeWidth=1;fontFamily=Verdana;fontSize=10;align=center;" parent="1" vertex="1">
          <mxGeometry x="120" y="1580" width="130" height="50" as="geometry" />
        </mxCell>
        <mxCell id="4T9-q51zRNTRowOw_aDu-173" style="edgeStyle=orthogonalEdgeStyle;rounded=0;orthogonalLoop=1;jettySize=auto;html=1;entryX=1;entryY=0.5;entryDx=0;entryDy=0;endArrow=diamondThin;endFill=0;exitX=0;exitY=0.5;exitDx=0;exitDy=0;" parent="1" source="4T9-q51zRNTRowOw_aDu-132" target="4T9-q51zRNTRowOw_aDu-172" edge="1">
          <mxGeometry relative="1" as="geometry">
            <Array as="points">
              <mxPoint x="320" y="1585" />
              <mxPoint x="320" y="1605" />
            </Array>
          </mxGeometry>
        </mxCell>
        <mxCell id="4T9-q51zRNTRowOw_aDu-174" value="&lt;b&gt;java.awt.event.ActionEvent&lt;/b&gt;" style="html=1;rounded=0;shadow=0;comic=0;labelBackgroundColor=none;strokeWidth=1;fontFamily=Verdana;fontSize=10;align=center;" parent="1" vertex="1">
          <mxGeometry x="90" y="1480" width="190" height="50" as="geometry" />
        </mxCell>
        <mxCell id="4T9-q51zRNTRowOw_aDu-177" style="edgeStyle=orthogonalEdgeStyle;rounded=0;orthogonalLoop=1;jettySize=auto;html=1;entryX=0.066;entryY=0.377;entryDx=0;entryDy=0;dashed=1;endArrow=open;endFill=0;exitX=0;exitY=0.5;exitDx=0;exitDy=0;entryPerimeter=0;" parent="1" source="4T9-q51zRNTRowOw_aDu-107" edge="1">
          <mxGeometry relative="1" as="geometry">
            <mxPoint x="119.95999999999981" y="640.8199999999999" as="targetPoint" />
            <Array as="points">
              <mxPoint x="340" y="1360" />
              <mxPoint x="90" y="1360" />
              <mxPoint x="90" y="1140" />
              <mxPoint x="120" y="1140" />
            </Array>
          </mxGeometry>
        </mxCell>
        <mxCell id="4T9-q51zRNTRowOw_aDu-178" value="java.awt.Graphics" style="html=1;rounded=0;shadow=0;glass=0;sketch=0;verticalAlign=middle;fontStyle=1" parent="1" vertex="1">
          <mxGeometry x="740" y="920" width="130" height="50" as="geometry" />
        </mxCell>
        <mxCell id="4T9-q51zRNTRowOw_aDu-184" style="edgeStyle=orthogonalEdgeStyle;rounded=0;orthogonalLoop=1;jettySize=auto;html=1;entryX=0.25;entryY=0;entryDx=0;entryDy=0;dashed=1;endArrow=open;endFill=0;jumpStyle=sharp;" parent="1" target="4T9-q51zRNTRowOw_aDu-178" edge="1">
          <mxGeometry relative="1" as="geometry">
            <mxPoint x="340" y="451" as="sourcePoint" />
            <Array as="points">
              <mxPoint x="330" y="451" />
              <mxPoint x="330" y="710" />
              <mxPoint x="730" y="710" />
              <mxPoint x="730" y="840" />
              <mxPoint x="772" y="840" />
            </Array>
          </mxGeometry>
        </mxCell>
        <mxCell id="4T9-q51zRNTRowOw_aDu-186" value="java.awt.Color" style="html=1;rounded=0;shadow=0;glass=0;sketch=0;verticalAlign=middle;fontStyle=1" parent="1" vertex="1">
          <mxGeometry x="680" y="180" width="130" height="50" as="geometry" />
        </mxCell>
        <mxCell id="4T9-q51zRNTRowOw_aDu-187" style="edgeStyle=orthogonalEdgeStyle;rounded=0;orthogonalLoop=1;jettySize=auto;html=1;entryX=0;entryY=0.75;entryDx=0;entryDy=0;endArrow=diamondThin;endFill=0;fillColor=#f8cecc;strokeColor=#000000;" parent="1" source="4T9-q51zRNTRowOw_aDu-14" target="4T9-q51zRNTRowOw_aDu-186" edge="1">
          <mxGeometry relative="1" as="geometry">
            <Array as="points">
              <mxPoint x="660" y="307" />
              <mxPoint x="660" y="218" />
            </Array>
          </mxGeometry>
        </mxCell>
        <mxCell id="4T9-q51zRNTRowOw_aDu-207" style="edgeStyle=orthogonalEdgeStyle;rounded=0;orthogonalLoop=1;jettySize=auto;html=1;entryX=1;entryY=0.5;entryDx=0;entryDy=0;startArrow=open;startFill=0;endArrow=none;endFill=0;fillColor=#f8cecc;strokeColor=#000000;dashed=1;exitX=0.501;exitY=1.011;exitDx=0;exitDy=0;exitPerimeter=0;" parent="1" source="4T9-q51zRNTRowOw_aDu-205" target="4T9-q51zRNTRowOw_aDu-104" edge="1">
          <mxGeometry relative="1" as="geometry">
            <Array as="points">
              <mxPoint x="780" y="1369" />
            </Array>
          </mxGeometry>
        </mxCell>
        <mxCell id="4T9-q51zRNTRowOw_aDu-209" style="edgeStyle=orthogonalEdgeStyle;rounded=0;orthogonalLoop=1;jettySize=auto;html=1;exitX=0.5;exitY=0;exitDx=0;exitDy=0;entryX=1;entryY=0.5;entryDx=0;entryDy=0;startArrow=none;startFill=0;endArrow=open;endFill=0;fillColor=#f8cecc;strokeColor=#000000;dashed=1;" parent="1" source="4T9-q51zRNTRowOw_aDu-202" target="4T9-q51zRNTRowOw_aDu-147" edge="1">
          <mxGeometry relative="1" as="geometry">
            <Array as="points">
              <mxPoint x="780" y="1021" />
            </Array>
          </mxGeometry>
        </mxCell>
        <mxCell id="4T9-q51zRNTRowOw_aDu-202" value="SortingTechnique" style="swimlane;fontStyle=1;childLayout=stackLayout;horizontal=1;startSize=26;horizontalStack=0;resizeParent=1;resizeParentMax=0;resizeLast=0;collapsible=1;marginBottom=0;rounded=0;shadow=0;glass=0;sketch=0;verticalAlign=middle;" parent="1" vertex="1">
          <mxGeometry x="700" y="1133" width="160" height="104" as="geometry" />
        </mxCell>
        <mxCell id="4T9-q51zRNTRowOw_aDu-203" value="- SortingTechnique()" style="text;strokeColor=none;fillColor=none;align=left;verticalAlign=top;spacingLeft=4;spacingRight=4;overflow=hidden;rotatable=0;points=[[0,0.5],[1,0.5]];portConstraint=eastwest;rounded=0;shadow=0;glass=0;sketch=0;fontStyle=0" parent="4T9-q51zRNTRowOw_aDu-202" vertex="1">
          <mxGeometry y="26" width="160" height="26" as="geometry" />
        </mxCell>
        <mxCell id="4T9-q51zRNTRowOw_aDu-204" value="+ sortBySurfaceArea(): void" style="text;strokeColor=none;fillColor=none;align=left;verticalAlign=top;spacingLeft=4;spacingRight=4;overflow=hidden;rotatable=0;points=[[0,0.5],[1,0.5]];portConstraint=eastwest;rounded=0;shadow=0;glass=0;sketch=0;fontStyle=4" parent="4T9-q51zRNTRowOw_aDu-202" vertex="1">
          <mxGeometry y="52" width="160" height="26" as="geometry" />
        </mxCell>
        <mxCell id="4T9-q51zRNTRowOw_aDu-205" value="- repaintShapes(): void" style="text;strokeColor=none;fillColor=none;align=left;verticalAlign=top;spacingLeft=4;spacingRight=4;overflow=hidden;rotatable=0;points=[[0,0.5],[1,0.5]];portConstraint=eastwest;rounded=0;shadow=0;glass=0;sketch=0;fontStyle=4" parent="4T9-q51zRNTRowOw_aDu-202" vertex="1">
          <mxGeometry y="78" width="160" height="26" as="geometry" />
        </mxCell>
        <mxCell id="4T9-q51zRNTRowOw_aDu-215" style="edgeStyle=orthogonalEdgeStyle;orthogonalLoop=1;jettySize=auto;html=1;entryX=1;entryY=0.5;entryDx=0;entryDy=0;startArrow=none;startFill=0;endArrow=diamondThin;endFill=1;strokeColor=#000000;rounded=0;exitX=1;exitY=0.5;exitDx=0;exitDy=0;" parent="1" source="4T9-q51zRNTRowOw_aDu-128" target="4T9-q51zRNTRowOw_aDu-151" edge="1">
          <mxGeometry relative="1" as="geometry" />
        </mxCell>
        <mxCell id="4T9-q51zRNTRowOw_aDu-217" style="edgeStyle=orthogonalEdgeStyle;rounded=0;orthogonalLoop=1;jettySize=auto;html=1;entryX=0.736;entryY=0.051;entryDx=0;entryDy=0;entryPerimeter=0;startArrow=diamondThin;startFill=1;endArrow=none;endFill=0;strokeColor=#000000;exitX=0.75;exitY=0;exitDx=0;exitDy=0;" parent="1" source="4T9-q51zRNTRowOw_aDu-216" edge="1">
          <mxGeometry relative="1" as="geometry">
            <mxPoint x="830.1599999999999" y="99.65999999999985" as="targetPoint" />
            <Array as="points">
              <mxPoint x="938" y="290" />
              <mxPoint x="830" y="290" />
            </Array>
          </mxGeometry>
        </mxCell>
        <mxCell id="4T9-q51zRNTRowOw_aDu-216" value="java.util.Random" style="html=1;rounded=0;shadow=0;glass=0;sketch=0;verticalAlign=middle;fontStyle=1" parent="1" vertex="1">
          <mxGeometry x="840" y="450" width="130" height="50" as="geometry" />
        </mxCell>
        <mxCell id="4T9-q51zRNTRowOw_aDu-218" style="edgeStyle=orthogonalEdgeStyle;rounded=0;orthogonalLoop=1;jettySize=auto;html=1;exitX=1;exitY=0.5;exitDx=0;exitDy=0;startArrow=none;startFill=0;endArrow=diamondThin;endFill=1;strokeColor=#000000;entryX=0.75;entryY=1;entryDx=0;entryDy=0;" parent="1" source="4T9-q51zRNTRowOw_aDu-127" target="4T9-q51zRNTRowOw_aDu-216" edge="1">
          <mxGeometry relative="1" as="geometry">
            <Array as="points">
              <mxPoint x="938" y="1395" />
              <mxPoint x="938" y="1070" />
            </Array>
          </mxGeometry>
        </mxCell>
        <mxCell id="4T9-q51zRNTRowOw_aDu-219" value="java.awt.FlowLayout" style="html=1;rounded=0;shadow=0;glass=0;sketch=0;verticalAlign=middle;fontStyle=1" parent="1" vertex="1">
          <mxGeometry x="680" y="1500" width="160" height="50" as="geometry" />
        </mxCell>
        <mxCell id="4T9-q51zRNTRowOw_aDu-220" value="java.awt.BorderLayout" style="html=1;rounded=0;shadow=0;glass=0;sketch=0;verticalAlign=middle;fontStyle=1" parent="1" vertex="1">
          <mxGeometry x="472" y="1126" width="160" height="50" as="geometry" />
        </mxCell>
        <mxCell id="4T9-q51zRNTRowOw_aDu-221" style="edgeStyle=orthogonalEdgeStyle;rounded=0;orthogonalLoop=1;jettySize=auto;html=1;entryX=0;entryY=0.5;entryDx=0;entryDy=0;startArrow=none;startFill=0;endArrow=diamondThin;endFill=1;strokeColor=#000000;exitX=1;exitY=0.5;exitDx=0;exitDy=0;" parent="1" source="4T9-q51zRNTRowOw_aDu-164" target="4T9-q51zRNTRowOw_aDu-220" edge="1">
          <mxGeometry relative="1" as="geometry">
            <Array as="points">
              <mxPoint x="420" y="1141" />
            </Array>
          </mxGeometry>
        </mxCell>
        <mxCell id="4T9-q51zRNTRowOw_aDu-222" style="edgeStyle=orthogonalEdgeStyle;rounded=0;orthogonalLoop=1;jettySize=auto;html=1;entryX=0;entryY=0.5;entryDx=0;entryDy=0;startArrow=none;startFill=0;endArrow=diamondThin;endFill=1;strokeColor=#000000;" parent="1" source="4T9-q51zRNTRowOw_aDu-131" target="4T9-q51zRNTRowOw_aDu-219" edge="1">
          <mxGeometry relative="1" as="geometry" />
        </mxCell>
        <mxCell id="4T9-q51zRNTRowOw_aDu-223" value="javax.swing.JFrame" style="html=1;rounded=0;shadow=0;glass=0;sketch=0;verticalAlign=middle;fontStyle=1" parent="1" vertex="1">
          <mxGeometry x="472" y="1214" width="160" height="50" as="geometry" />
        </mxCell>
        <mxCell id="4T9-q51zRNTRowOw_aDu-225" style="edgeStyle=orthogonalEdgeStyle;rounded=0;orthogonalLoop=1;jettySize=auto;html=1;exitX=1;exitY=0.5;exitDx=0;exitDy=0;entryX=0;entryY=0.5;entryDx=0;entryDy=0;startArrow=none;startFill=0;endArrow=diamondThin;endFill=1;strokeColor=#000000;" parent="1" source="4T9-q51zRNTRowOw_aDu-168" target="4T9-q51zRNTRowOw_aDu-223" edge="1">
          <mxGeometry relative="1" as="geometry">
            <Array as="points">
              <mxPoint x="420" y="1229" />
            </Array>
          </mxGeometry>
        </mxCell>
        <mxCell id="4T9-q51zRNTRowOw_aDu-226" style="edgeStyle=orthogonalEdgeStyle;rounded=0;orthogonalLoop=1;jettySize=auto;html=1;entryX=0.25;entryY=1;entryDx=0;entryDy=0;startArrow=none;startFill=0;endArrow=diamondThin;endFill=0;strokeColor=#000000;" parent="1" source="4T9-q51zRNTRowOw_aDu-71" target="4T9-q51zRNTRowOw_aDu-186" edge="1">
          <mxGeometry relative="1" as="geometry" />
        </mxCell>
        <mxCell id="4T9-q51zRNTRowOw_aDu-228" style="edgeStyle=orthogonalEdgeStyle;rounded=0;orthogonalLoop=1;jettySize=auto;html=1;entryX=0;entryY=0.25;entryDx=0;entryDy=0;startArrow=none;startFill=0;endArrow=diamondThin;endFill=0;strokeColor=#000000;" parent="1" source="4T9-q51zRNTRowOw_aDu-78" target="4T9-q51zRNTRowOw_aDu-186" edge="1">
          <mxGeometry relative="1" as="geometry" />
        </mxCell>
        <mxCell id="4T9-q51zRNTRowOw_aDu-230" value="java.lang.Math" style="html=1;rounded=0;shadow=0;glass=0;sketch=0;verticalAlign=middle;fontStyle=1" parent="1" vertex="1">
          <mxGeometry x="411.5" y="610" width="130" height="50" as="geometry" />
        </mxCell>
        <mxCell id="4T9-q51zRNTRowOw_aDu-232" style="edgeStyle=orthogonalEdgeStyle;rounded=0;jumpStyle=line;orthogonalLoop=1;jettySize=auto;html=1;entryX=0;entryY=0.5;entryDx=0;entryDy=0;dashed=1;startArrow=none;startFill=0;endArrow=open;endFill=0;strokeColor=#000000;" parent="1" source="4T9-q51zRNTRowOw_aDu-75" target="4T9-q51zRNTRowOw_aDu-230" edge="1">
          <mxGeometry relative="1" as="geometry">
            <Array as="points">
              <mxPoint x="316" y="247" />
              <mxPoint x="316" y="635" />
            </Array>
          </mxGeometry>
        </mxCell>
        <mxCell id="4T9-q51zRNTRowOw_aDu-233" style="edgeStyle=orthogonalEdgeStyle;rounded=0;jumpStyle=line;orthogonalLoop=1;jettySize=auto;html=1;exitX=1;exitY=0.5;exitDx=0;exitDy=0;entryX=0.5;entryY=0;entryDx=0;entryDy=0;dashed=1;startArrow=none;startFill=0;endArrow=open;endFill=0;strokeColor=#000000;" parent="1" target="4T9-q51zRNTRowOw_aDu-178" edge="1">
          <mxGeometry relative="1" as="geometry">
            <mxPoint x="590" y="271.9999999999999" as="sourcePoint" />
            <mxPoint x="221.22000000000003" y="854.4999999999998" as="targetPoint" />
            <Array as="points">
              <mxPoint x="750" y="272" />
              <mxPoint x="750" y="810" />
              <mxPoint x="805" y="810" />
            </Array>
          </mxGeometry>
        </mxCell>
        <mxCell id="4T9-q51zRNTRowOw_aDu-234" style="edgeStyle=orthogonalEdgeStyle;rounded=0;jumpStyle=line;orthogonalLoop=1;jettySize=auto;html=1;exitX=1;exitY=0.5;exitDx=0;exitDy=0;entryX=0;entryY=0.5;entryDx=0;entryDy=0;dashed=1;startArrow=none;startFill=0;endArrow=open;endFill=0;strokeColor=#000000;" parent="1" source="4T9-q51zRNTRowOw_aDu-205" target="4T9-q51zRNTRowOw_aDu-33" edge="1">
          <mxGeometry relative="1" as="geometry">
            <Array as="points">
              <mxPoint x="880" y="1224" />
              <mxPoint x="880" y="1660" />
              <mxPoint x="70" y="1660" />
              <mxPoint x="70" y="619" />
            </Array>
          </mxGeometry>
        </mxCell>
        <mxCell id="4T9-q51zRNTRowOw_aDu-239" style="edgeStyle=orthogonalEdgeStyle;rounded=0;jumpStyle=line;orthogonalLoop=1;jettySize=auto;html=1;exitX=0.5;exitY=1;exitDx=0;exitDy=0;entryX=0.732;entryY=0.006;entryDx=0;entryDy=0;entryPerimeter=0;startArrow=none;startFill=0;endArrow=block;endFill=0;strokeColor=#000000;" parent="1" source="4T9-q51zRNTRowOw_aDu-235" target="4T9-q51zRNTRowOw_aDu-178" edge="1">
          <mxGeometry relative="1" as="geometry" />
        </mxCell>
        <mxCell id="4T9-q51zRNTRowOw_aDu-240" style="edgeStyle=orthogonalEdgeStyle;rounded=0;jumpStyle=line;orthogonalLoop=1;jettySize=auto;html=1;exitX=0.75;exitY=0;exitDx=0;exitDy=0;startArrow=open;startFill=0;endArrow=none;endFill=0;strokeColor=#000000;dashed=1;" parent="1" source="4T9-q51zRNTRowOw_aDu-235" edge="1">
          <mxGeometry relative="1" as="geometry">
            <mxPoint x="360" y="470" as="targetPoint" />
            <Array as="points">
              <mxPoint x="868" y="670" />
              <mxPoint x="360" y="670" />
            </Array>
          </mxGeometry>
        </mxCell>
        <mxCell id="4T9-q51zRNTRowOw_aDu-235" value="java.awt.Graphics2D" style="html=1;rounded=0;shadow=0;glass=0;sketch=0;verticalAlign=middle;fontStyle=1" parent="1" vertex="1">
          <mxGeometry x="770" y="730" width="130" height="50" as="geometry" />
        </mxCell>
        <mxCell id="4T9-q51zRNTRowOw_aDu-241" style="edgeStyle=orthogonalEdgeStyle;rounded=0;jumpStyle=line;orthogonalLoop=1;jettySize=auto;html=1;exitX=0;exitY=0.5;exitDx=0;exitDy=0;entryX=0.25;entryY=0;entryDx=0;entryDy=0;dashed=1;startArrow=none;startFill=0;endArrow=open;endFill=0;strokeColor=#000000;" parent="1" source="4T9-q51zRNTRowOw_aDu-78" target="4T9-q51zRNTRowOw_aDu-235" edge="1">
          <mxGeometry relative="1" as="geometry">
            <Array as="points">
              <mxPoint x="303" y="221" />
              <mxPoint x="303" y="690" />
              <mxPoint x="803" y="690" />
              <mxPoint x="803" y="730" />
            </Array>
          </mxGeometry>
        </mxCell>
      </root>
    </mxGraphModel>
  </diagram>
</mxfile>
